Coordinates
nRows=9
nColumns=38

# SIMM Motion File Header:
name Coordinates
datacolumns 38
datarows 9
otherdata 1
range 0.38200000000000001000 0.39000000000000001000

Units are S.I. units (second, meters, Newtons, ...)
Angles are in degrees.

endheader
time	pelvis_tilt	pelvis_list	pelvis_rotation	pelvis_tx	pelvis_ty	pelvis_tz	hip_flexion_r	hip_adduction_r	hip_rotation_r	knee_angle_r	ankle_angle_r	subtalar_angle_r	mtp_angle_r	hip_flexion_l	hip_adduction_l	hip_rotation_l	knee_angle_l	ankle_angle_l	subtalar_angle_l	mtp_angle_l	lumbar_extension	lumbar_bending	lumbar_rotation	arm_flex_r	arm_add_r	arm_rot_r	elbow_flex_r	pro_sup_r	wrist_flex_r	wrist_dev_r	arm_flex_l	arm_add_l	arm_rot_l	elbow_flex_l	pro_sup_l	wrist_flex_l	wrist_dev_l
      0.38200000000000001000	     -6.12041800502773100000	     -2.85388615427199840000	      1.07828451490252460000	      0.78598162251594439000	      1.02180151073947730000	     -0.32293601397004240000	     31.98257976674028300000	      4.92800905468598230000	     -8.02660966233779760000	    -11.36397161270918100000	    -16.31728489202755100000	      0.00000000000000000000	      0.00000000000000000000	    -14.48457464138744100000	     -4.15310321989684010000	    -10.35704752330585500000	    -69.41269803781038700000	    -24.95568458316345000000	      0.00000000000000000000	      0.00000000000000000000	      0.66639460265902284000	      4.99212405817283060000	    -15.91358187379616500000	    -30.25067618623871700000	    -29.12880411322462100000	     -1.47010033305665730000	     56.36557638568276500000	     75.68115685320444200000	      0.00000000000000000000	      0.00000000000000000000	     -7.66294399631876470000	    -38.16201189766012200000	     20.72775370223980900000	    104.71767161869273000000	     80.75633276982229300000	      0.00000000000000000000	      0.00000000000000000000
      0.38300000000000001000	     -6.08306370977901350000	     -2.83794902247145100000	      0.96078189759839960000	      0.78597838451445157000	      1.02129828502611430000	     -0.32277646447276298000	     31.87978338934032200000	      4.98088708993751170000	     -8.17177351534688870000	    -11.34720133006299700000	    -16.44287606042410800000	      0.00000000000000000096	     -0.00000000000000000047	    -14.36398463255987900000	     -4.13884920417272010000	    -10.40640953796105500000	    -70.10252101262240400000	    -24.80734390378226800000	      0.00000000000000000143	     -0.00000000000000000041	      0.60880085554996399000	      5.01246373832170460000	    -15.75103785787087100000	    -30.14379044894142700000	    -29.15894685396880300000	     -1.48849551651165270000	     56.41169622312625600000	     75.76942139193082000000	     -0.00000000000000000062	     -0.00000000000000000025	     -7.77132646702888060000	    -38.09523221116514000000	     20.77050750360914900000	    104.31833805170346000000	     80.85810973911328900000	     -0.00000000000000000069	      0.00000000000000000072
      0.38400000000000001000	     -6.04553486816806630000	     -2.82415688709173550000	      0.84333715754977945000	      0.78597154068378416000	      1.02078678896162310000	     -0.32261427134325610000	     31.78137545837271800000	      5.03547492508627670000	     -8.31193952056661980000	    -11.35084101820156000000	    -16.55968256352758800000	      0.00000000000000000002	     -0.00000000000000000016	    -14.24147191600811400000	     -4.12908766438955690000	    -10.45886562317455100000	    -70.79264126808590200000	    -24.65495763443264500000	      0.00000000000000000281	     -0.00000000000000000348	      0.55079800258544365000	      5.03478372059426520000	    -15.58818240112937100000	    -30.03375839295635400000	    -29.19016184939574300000	     -1.50407830516539030000	     56.45718180623154600000	     75.86028352868847000000	     -0.00000000000000000031	      0.00000000000000000012	     -7.87865861090732270000	    -38.02756210371101300000	     20.81368071296167700000	    103.91444734671599000000	     80.96280269159196100000	     -0.00000000000000000270	      0.00000000000000000063
      0.38500000000000001000	     -6.00782856499072880000	     -2.81253160057493810000	      0.72596683928719363000	      0.78596108907170537000	      1.02026718975848850000	     -0.32244945080319648000	     31.68719407097379900000	      5.09175293952320820000	     -8.44724569364240630000	    -11.37448041720403300000	    -16.67036659128477200000	     -0.00000000000000000275	     -0.00000000000000000041	    -14.11702909145579100000	     -4.12385876460186920000	    -10.51428433375826400000	    -71.48301760318497600000	    -24.49859202302691200000	      0.00000000000000000415	     -0.00000000000000001094	      0.49236284955328835000	      5.05910217343088140000	    -15.42500258454758600000	    -29.92062776402764300000	    -29.22241993054307600000	     -1.51690966955971730000	     56.50206599330417100000	     75.95349381700131600000	     -0.00000000000000000059	     -0.00000000000000000140	     -7.98481939820369480000	    -37.95900252246199400000	     20.85740790055184500000	    103.50600302697228000000	     81.07019213985698500000	     -0.00000000000000000505	     -0.00000000000000000057
      0.38600000000000001000	     -5.96982987868413060000	     -2.80312207798191260000	      0.60874599288433073000	      0.78594717300229655000	      1.01973974489486290000	     -0.32228201138236140000	     31.59686413118366800000	      5.14980933129435050000	     -8.57691739045045760000	    -11.41763100632530300000	    -16.77372805571648600000	     -0.00000000000000001037	     -0.00000000000000000036	    -13.99078447641821500000	     -4.12326315889055370000	    -10.57250934412478000000	    -72.17358638890296200000	    -24.33831235696756700000	      0.00000000000000000893	     -0.00000000000000002085	      0.43336000246238016000	      5.08545605423480930000	    -15.26152962462848000000	    -29.80447718269204300000	    -29.25568002802854700000	     -1.52707352349677470000	     56.54643619297549900000	     76.04874113695947800000	      0.00000000000000000080	     -0.00000000000000000694	     -8.08967665222989400000	    -37.88959735712818900000	     20.90185052032192900000	    103.09306133001988000000	     81.17999142141582100000	     -0.00000000000000000780	      0.00000000000000000059
      0.38700000000000001000	     -5.93125618598682710000	     -2.79593075848005320000	      0.49164393382429022000	      0.78592994876893407000	      1.01920500477663480000	     -0.32211183161175622000	     31.50984159604024300000	      5.20973590905793670000	     -8.70023444545749140000	    -11.47980613017831400000	    -16.86907645995830800000	     -0.00000000000000002010	     -0.00000000000000000073	    -13.86309677830489500000	     -4.12731463239387160000	    -10.63348526042433700000	    -72.86419166494590600000	    -24.17422691493777300000	      0.00000000000000001546	     -0.00000000000000002662	      0.37344442946309875000	      5.11384055440517750000	    -15.09767136091325000000	    -29.68534977481559200000	    -29.28989594219901000000	     -1.53465323816978590000	     56.59039028328522400000	     76.14570694827052900000	      0.00000000000000000382	     -0.00000000000000001487	     -8.19305586454743380000	    -37.81941348760150100000	     20.94718422287003900000	    102.67568887642918000000	     81.29189323249725900000	     -0.00000000000000001060	      0.00000000000000000345
      0.38800000000000001000	     -5.89190530812709930000	     -2.79093666914071870000	      0.37470413952172504000	      0.78590952232591837000	      1.01866338335804210000	     -0.32193892811984615000	     31.42567618874391800000	      5.27155790817573780000	     -8.81654532727862870000	    -11.56053693906440600000	    -16.95554487122549900000	     -0.00000000000000002873	     -0.00000000000000000289	    -13.73419518415583300000	     -4.13600893859469560000	    -10.69706145129213800000	    -73.55473090192363400000	    -24.00643477962994900000	      0.00000000000000002354	     -0.00000000000000003062	      0.31236703352437728000	      5.14422138086975520000	    -14.93341214527553600000	    -29.56329701192000300000	    -29.32501352248176100000	     -1.53974032265548310000	     56.63402212313586400000	     76.24407978908611500000	      0.00000000000000000682	     -0.00000000000000002375	     -8.29480683628431950000	    -37.74851952447227900000	     20.99357798886841000000	    102.25395407532180000000	     81.40559812587010000000	     -0.00000000000000001260	      0.00000000000000000693
      0.38900000000000001000	     -5.85162583011080880000	     -2.78810623806190620000	      0.25801404710260278000	      0.78588596042827263000	      1.01811521087763030000	     -0.32176341033642747000	     31.34398132123075700000	      5.33525937698520640000	     -8.92528899333010450000	    -11.65936912296688300000	    -17.03225284351033200000	     -0.00000000000000003211	     -0.00000000000000000677	    -13.60422656535327800000	     -4.14932989144659460000	    -10.76303066361092100000	    -74.24513612194293400000	    -23.83503003118971400000	      0.00000000000000003134	     -0.00000000000000002888	      0.24993804860404090000	      5.17655050301505600000	    -14.76878085572806800000	    -29.43837462209447500000	    -29.36097538597609400000	     -1.54243302548761350000	     56.67742520836740300000	     76.34355225503512100000	      0.00000000000000001125	     -0.00000000000000003347	     -8.39479510811984930000	    -37.67698367824871000000	     21.04119605681203700000	    101.82792635369219000000	     81.52081412388399400000	     -0.00000000000000001512	      0.00000000000000000993
      0.39000000000000001000	     -5.81030093516241130000	     -2.78739600424532390000	      0.14168857907053309000	      0.78585929836845470000	      1.01756075923662600000	     -0.32158545319307641000	     31.26441753471563300000	      5.40079620035486220000	     -9.02597691390561070000	    -11.77586449154880400000	    -17.09827863944925500000	     -0.00000000000000003095	     -0.00000000000000001256	    -13.47328138089864600000	     -4.16724941663500110000	    -10.83114892312760700000	    -74.93536317649336800000	    -23.66010399086244600000	      0.00000000000000003841	     -0.00000000000000002167	      0.18600722691458518000	      5.21077055121833870000	    -14.60383351146387400000	    -29.31064080356648600000	    -29.39772272048449900000	     -1.54283547291639510000	     56.72069500617078600000	     76.44382006311630600000	      0.00000000000000001593	     -0.00000000000000004583	     -8.49289806732389960000	    -37.60487416738008200000	     21.09019856596139400000	    101.39767731154957000000	     81.63725632814568200000	     -0.00000000000000001964	      0.00000000000000001255
